<svg xmlns="http://www.w3.org/2000/svg" xmlns:xlink="http://www.w3.org/1999/xlink" width="500" zoomAndPan="magnify" viewBox="0 0 375 374.999991" height="500" preserveAspectRatio="xMidYMid meet" version="1.0"><defs><clipPath id="b22f70d51d"><path d="M 126.007812 137 L 249 137 L 249 254 L 126.007812 254 Z M 126.007812 137 " clip-rule="nonzero"/></clipPath></defs><g clip-path="url(#b22f70d51d)"><path fill="#8c52ff" d="M 245.042969 137.664062 L 212.890625 137.664062 C 214.773438 141.429688 216.03125 145.652344 216.484375 150.148438 C 218.179688 150.917969 219.375 152.621094 219.375 154.613281 C 219.375 156.671875 218.109375 158.433594 216.316406 159.167969 C 215.738281 159.402344 215.117188 159.535156 214.457031 159.535156 C 213.644531 159.535156 212.890625 159.335938 212.214844 158.992188 C 210.625 158.175781 209.535156 156.523438 209.535156 154.613281 C 209.535156 152.890625 210.429688 151.382812 211.777344 150.503906 C 211.285156 145.765625 209.78125 141.386719 207.523438 137.664062 L 167.511719 137.664062 C 165.253906 141.390625 163.75 145.777344 163.257812 150.519531 C 164.589844 151.402344 165.46875 152.902344 165.46875 154.613281 C 165.46875 156.523438 164.382812 158.175781 162.792969 158.992188 C 162.117188 159.335938 161.359375 159.535156 160.550781 159.535156 C 159.894531 159.535156 159.265625 159.402344 158.691406 159.167969 C 156.898438 158.433594 155.632812 156.671875 155.632812 154.613281 C 155.632812 152.613281 156.835938 150.898438 158.550781 150.128906 C 159.003906 145.644531 160.253906 141.425781 162.140625 137.660156 L 129.945312 137.660156 L 126.007812 245.679688 C 126.007812 250.027344 129.535156 253.558594 133.886719 253.558594 L 241.101562 253.558594 C 245.457031 253.558594 248.988281 250.027344 248.988281 245.679688 Z M 245.042969 137.664062 " fill-opacity="1" fill-rule="nonzero"/></g><path fill="#8c52ff" d="M 158.980469 153.8125 L 158.988281 153.898438 C 159.039062 154.824219 159.796875 155.546875 160.714844 155.546875 C 161.636719 155.546875 162.394531 154.824219 162.445312 153.898438 L 162.457031 153.6875 C 162.5625 137.816406 173.765625 124.945312 187.519531 124.945312 C 201.296875 124.945312 212.515625 137.867188 212.582031 153.777344 L 212.59375 153.898438 C 212.640625 154.824219 213.398438 155.546875 214.316406 155.546875 C 215.238281 155.546875 215.996094 154.824219 216.050781 153.898438 L 216.058594 153.753906 C 215.960938 135.929688 203.171875 121.46875 187.519531 121.46875 C 171.847656 121.46875 159.046875 135.964844 158.980469 153.777344 Z M 158.980469 153.8125 " fill-opacity="1" fill-rule="nonzero"/></svg>